# xmcd
#
# Track frame offsets:
# 150
# 21907
# 41500
# 58317
# 73015
# 91927
# 108497
# 123712
# 139697
# 155367
# 173790
#
# Disc length: 2463 seconds
#
#
# Revision: 3
# Processed by: cddbd v1.5.2PL0 Copyright (c) Steve Scherf et al.
# Submitted via: FreeRIP 2.951 
#
DISCID=99099d0b
DTITLE=Ana Gabriel - Mi México
DYEAR=1991
DGENRE=Ranchero
TTITLE0=Mi Talismán
TTITLE1=Como Olvidar
TTITLE2=No Entiendo
TTITLE3=Oye
TTITLE4=Y Aqui estoy
TTITLE5=Amigo Mío
TTITLE6=Ahora
TTITLE7=Sin Problemas
TTITLE8=Hechizo
TTITLE9=Voy A Ser
TTITLE10=No Siempre Se Gana
EXTD=YEAR: 1991
EXTT0=
EXTT1=
EXTT2=
EXTT3=
EXTT4=
EXTT5=
EXTT6=
EXTT7=
EXTT8=
EXTT9=
EXTT10=
PLAYORDER=
